#!OML:ASF E:\emotionWalksFemale\Project 1\Capture day 1\Session 1\Female1.ASF
:FULLY-SPECIFIED
:DEGREES
2041
root 8.79756 15.3943 42.7187 17.4886 -177.435 -357.124
lowerback 14.8767 1.10367 -0.0160143
upperback 0.0643403 1.3607 -0.0365025
thorax -8.29362 0.614575 -0.319601
lowerneck -6.89198 3.92357 -2.42571
upperneck 34.6363 1.79754 1.20308
head 12.5513 -0.619616 0.833241
rclavicle -5.26779e-015 1.37161e-014
rhumerus -41.4337 5.05877 -83.3104
rradius 42.323
rwrist 15.5266
rhand -2.98742 -51.5836
rfingers 7.12502
rthumb 22.726 -800.265
lclavicle -5.26779e-015 1.37161e-014
lhumerus -35.9207 -0.911863 81.7154
lradius 56.7542
lwrist -3.65739
lhand -13.8252 -28.3473
lfingers 7.12502
lthumb 12.2976 1.27112
rfemur -28.5336 30.4169 18.0574
rtibia 23.7126
rfoot -26.0892 -42.5336
rtoes 26.5855
lfemur -34.2658 -31.1185 -6.60233
ltibia 29.9665
lfoot -22.9313 20.9658
ltoes -12.2836
2042
root 8.76935 15.3938 42.7181 17.405 -177.887 -356.982
lowerback 14.9189 1.14687 0.0358904
upperback 0.0488638 1.42282 -0.0843719
thorax -8.33139 0.641097 -0.414715
lowerneck -6.72378 4.03195 -2.41588
upperneck 34.6045 1.91164 1.24849
head 12.4986 -0.569877 0.859525
rclavicle -1.11319e-014 -1.78906e-015
rhumerus -41.6191 5.69596 -83.6947
rradius 43.0559
rwrist 14.9859
rhand -3.19868 -51.9918
rfingers 7.12502
rthumb 22.5233 -800.698
lclavicle -1.11319e-014 -1.78906e-015
lhumerus -35.3945 -0.0481197 80.8559
lradius 57.0098
lwrist -1.4232
lhand -14.0347 -39.775
lfingers 7.12502
lthumb 12.0957 -10.1446
rfemur -28.3859 29.7267 18.346
rtibia 23.723
rfoot -24.9772 -41.8674
rtoes 24.5522
lfemur -33.9754 -31.0571 -6.72565
ltibia 29.9352
lfoot -23.1344 21.2146
ltoes -11.4839
2043
root 8.73606 15.3939 42.7127 17.4118 -178.416 -357.213
lowerback 14.84 1.14978 -0.283916
upperback 0.0289905 1.36358 -0.195716
thorax -8.31372 0.623963 -0.338647
lowerneck -6.60862 4.15049 -2.3188
upperneck 34.5848 2.10158 1.05631
head 12.467 -0.505191 0.788477
rclavicle -1.68967e-014 0
rhumerus -41.4256 6.01694 -84.0587
rradius 43.2956
rwrist 15.0236
rhand -3.56527 -51.8875
rfingers 7.12502
rthumb 22.1714 -800.636
lclavicle -1.68967e-014 0
lhumerus -35.2966 0.372655 80.3232
lradius 55.9531
lwrist -3.88935
lhand -18.9112 -45.1359
lfingers 7.12502
lthumb 7.39091 -15.285
rfemur -28.3379 28.7923 18.2119
rtibia 23.7246
rfoot -23.6942 -40.8511
rtoes 22.3789
lfemur -33.8102 -31.1792 -7.1628
ltibia 29.9123
lfoot -23.433 21.5825
ltoes -10.6334
2044
root 8.71731 15.3951 42.7211 17.3999 -178.575 -357.113
lowerback 14.9325 1.06031 -0.421408
upperback -0.0187491 1.22969 -0.106918
thorax -8.42301 0.567482 -0.139108
lowerneck -6.69869 4.25725 -2.25849
upperneck 34.7764 2.25403 0.868579
head 12.5689 -0.473193 0.721638
rclavicle 7.95139e-016 -6.75868e-015
rhumerus -41.307 6.54107 -84.4111
rradius 43.7545
rwrist 14.8286
rhand -4.57597 -51.6015
rfingers 7.12502
rthumb 21.2008 -800.462
lclavicle 7.95139e-016 -6.75868e-015
lhumerus -35.0534 0.283625 79.9012
lradius 55.6056
lwrist -5.31446
lhand -21.2106 -46.8319
lfingers 7.12502
lthumb 5.171 -16.915
rfemur -28.3052 28.2426 18.4053
rtibia 23.688
rfoot -23.1194 -40.2467
rtoes 21.664
lfemur -33.7733 -30.9127 -7.19855
ltibia 29.9404
lfoot -23.6131 21.3135
ltoes -9.85252
2045
root 8.69229 15.3915 42.7142 17.2057 -178.935 -356.793
lowerback 14.9404 1.06424 -0.270711
upperback 0.036865 1.26275 -0.0415401
thorax -8.36532 0.577015 -0.160954
lowerneck -6.79898 4.37419 -2.2159
upperneck 34.9647 2.39344 0.803491
head 12.6698 -0.431978 0.704094
rclavicle -2.06736e-014 -7.95139e-015
rhumerus -41.2033 7.15453 -84.7975
rradius 44.618
rwrist 14.1707
rhand -5.7795 -52.0418
rfingers 7.12502
rthumb 20.0443 -801.028
lclavicle -2.06736e-014 -7.95139e-015
lhumerus -33.4197 6.95256 75.4718
lradius 64.2757
lwrist 30.2283
lhand 47.7519 -19.1848
lfingers 7.12502
lthumb 68.4158 -18.9735
rfemur -28.0202 27.6392 18.9522
rtibia 23.7135
rfoot -22.3918 -39.4446
rtoes 20.7213
lfemur -33.3901 -30.9743 -7.12032
ltibia 29.9232
lfoot -23.8752 21.5936
ltoes -9.41792
2046
root 8.66575 15.391 42.7098 17.2169 -179.284 -356.573
lowerback 14.7801 1.0419 -0.137595
upperback 0.0108828 1.26062 -0.0328492
thorax -8.3001 0.572384 -0.224136
lowerneck -6.81287 4.51026 -2.13439
upperneck 35.0675 2.57742 0.695882
head 12.7174 -0.367045 0.668344
rclavicle -1.25234e-014 -2.42517e-014
rhumerus -40.9527 7.61982 -85.0969
rradius 45.1819
rwrist 13.4798
rhand -5.26507 -52.4305
rfingers 7.12502
rthumb 20.5387 -801.364
lclavicle -1.25234e-014 -2.42517e-014
lhumerus -34.6224 -0.378915 79.8185
lradius 60.2141
lwrist 1.20857
lhand -14.4384 -38.8994
lfingers 7.12502
lthumb 11.7064 -9.24644
rfemur -28.01 27.1218 19.2085
rtibia 23.6925
rfoot -21.7451 -38.712
rtoes 19.9589
lfemur -33.2666 -30.8462 -7.08587
ltibia 29.916
lfoot -23.8504 21.8032
ltoes -10.7176
2047
root 8.64713 15.3983 42.7268 17.3787 -179.393 -356.699
lowerback 14.8081 0.935718 -0.405348
upperback -0.124797 1.08096 -0.0350398
thorax -8.46833 0.499908 -0.0382275
lowerneck -6.81443 4.63342 -2.12347
upperneck 35.1602 2.75292 0.58926
head 12.757 -0.316015 0.64391
rclavicle 1.0138e-014 3.57812e-015
rhumerus -40.6444 7.56058 -85.182
rradius 45.492
rwrist 13.3883
rhand -4.22919 -52.0712
rfingers 7.12502
rthumb 21.5339 -800.894
lclavicle 1.0138e-014 3.57812e-015
lhumerus -34.3583 -0.354204 79.4996
lradius 60.9943
lwrist 2.1981
lhand -13.7021 -37.8254
lfingers 7.12502
lthumb 12.4163 -8.21422
rfemur -28.2388 26.6097 19.0143
rtibia 23.6906
rfoot -21.2861 -38.2325
rtoes 19.5949
lfemur -33.4522 -30.2587 -7.36521
ltibia 29.8955
lfoot -23.5279 21.3734
ltoes -12.478
2048
root 8.62181 15.4038 42.7275 17.3678 -179.78 -356.72
lowerback 14.6868 0.85237 -0.598888
upperback -0.111366 1.11307 -0.0658401
thorax -8.38793 0.598388 0.0223244
lowerneck -6.88658 4.71147 -2.1998
upperneck 35.2288 2.84277 0.664127
head 12.7965 -0.284726 0.69689
rclavicle 1.15295e-014 -9.14409e-015
rhumerus -40.4754 7.06823 -85.1265
rradius 46.1568
rwrist 13.9024
rhand -4.94724 -51.6656
rfingers 7.12502
rthumb 20.8441 -800.566
lclavicle 1.15295e-014 -9.14409e-015
lhumerus -33.9728 -0.20007 79.2923
lradius 63.7597
lwrist 6.27194
lhand -8.37361 -32.32
lfingers 7.12502
lthumb 17.5493 -3.09212
rfemur -28.1812 25.8913 19.0818
rtibia 23.7227
rfoot -20.4594 -37.3555
rtoes 17.8512
lfemur -33.3248 -30.1604 -7.58659
ltibia 29.8604
lfoot -23.5795 21.6305
ltoes -12.6591
2049
root 8.60177 15.4041 42.7391 17.365 -179.972 -356.551
lowerback 14.8188 0.827676 -0.540545
upperback -0.162605 1.08995 -0.037834
thorax -8.51753 0.584615 0.0216683
lowerneck -6.89957 4.79485 -2.19039
upperneck 35.2185 2.95419 0.68857
head 12.7921 -0.233011 0.718088
rclavicle 6.16232e-015 1.98785e-015
rhumerus -40.503 6.7982 -85.1452
rradius 46.9516
rwrist 14.4042
rhand -5.49387 -51.0473
rfingers 7.12502
rthumb 20.3188 -800.004
lclavicle 6.16232e-015 1.98785e-015
lhumerus -33.7472 -0.219243 79.1355
lradius 63.4547
lwrist 5.28734
lhand -10.5068 -34.9098
lfingers 7.12502
lthumb 15.4956 -5.51079
rfemur -28.2739 25.3942 19.288
rtibia 23.8652
rfoot -20.0719 -36.7197
rtoes 16.6279
lfemur -33.2039 -29.7058 -7.63932
ltibia 29.7647
lfoot -23.242 21.6944
ltoes -14.1319
